<svg id="Layer_1" data-name="Layer 1" xmlns="http://www.w3.org/2000/svg" viewBox="0 0 85.08 17.59"><defs><style>.cls-1{fill:none;}.cls-1,.cls-2{stroke:red;stroke-miterlimit:10;}.cls-2{fill:red;stroke-width:0.25px;}.cls-3{fill:#ed1c24;}</style></defs><line class="cls-1" x1="4.06" y1="17.09" x2="2.35" y2="17.09"/><polyline class="cls-1" points="5.28 17.09 4.06 17.09 4.06 13.65 16.8 13.65 16.8 17.09 6.98 17.09"/><path class="cls-1" d="M10.63,5.77h0a4.12,4.12,0,0,1,4.12,4.12V13.5a0,0,0,0,1,0,0H6.1a0,0,0,0,1,0,0V10.3a4.54,4.54,0,0,1,4.54-4.54Z"/><path class="cls-1" d="M8.09,9.64a2.43,2.43,0,0,1,2-1.84,2.65,2.65,0,0,1,1.66.28"/><line class="cls-1" x1="18.13" y1="17.09" x2="16.43" y2="17.09"/><rect class="cls-2" x="10.14" y="0.12" width="0.58" height="4.33" rx="0.29"/><path class="cls-2" d="M14.9,6.33h0a.29.29,0,0,0,.39-.1L17.23,3a.28.28,0,0,0-.1-.38h0a.3.3,0,0,0-.4.1L14.79,6A.27.27,0,0,0,14.9,6.33Z"/><path class="cls-2" d="M4.17,2.58h0a.3.3,0,0,1,.4.1L6.5,6a.27.27,0,0,1-.1.38h0a.3.3,0,0,1-.4-.1L4.07,3A.27.27,0,0,1,4.17,2.58Z"/><rect class="cls-2" x="2.07" y="6.47" width="0.56" height="4.45" rx="0.28" transform="translate(-6.35 11.05) rotate(-90)"/><rect class="cls-2" x="17.96" y="6.47" width="0.56" height="4.45" rx="0.28" transform="translate(9.54 26.94) rotate(-90)"/><path class="cls-3" d="M25,5h1.39V8.11h3.17V5h1.39V12.8H29.53V9.33H26.36V12.8H25Z"/><path class="cls-3" d="M32.51,8.85c0-2.54,1.41-4,3.46-4s3.46,1.5,3.46,4S38,13,36,13,32.51,11.39,32.51,8.85Zm5.49,0C38,7.09,37.2,6,36,6s-2,1.07-2,2.83.79,2.89,2,2.89S38,10.61,38,8.85Z"/><path class="cls-3" d="M42.28,6.13H40V5h5.92V6.13H43.67V12.8H42.28Z"/><path class="cls-3" d="M46.52,8.91c0-2.57,1.61-4.09,3.6-4.09a3.15,3.15,0,0,1,2.26,1l-.75.9A2,2,0,0,0,50.15,6C48.87,6,48,7.1,48,8.86s.85,2.88,2.16,2.88a2.2,2.2,0,0,0,1.68-.81l.74.88A3.14,3.14,0,0,1,50.06,13C48.09,13,46.52,11.5,46.52,8.91Z"/><path class="cls-3" d="M55.38,5H57l2.56,7.84H58.1L56.9,8.63c-.24-.83-.47-1.73-.71-2.59h0c-.22.87-.45,1.76-.7,2.59l-1.2,4.17H52.83Zm-1,4.63H58v1.09H54.34Z"/><path class="cls-3" d="M60.47,5h1.39v6.67h3.26V12.8H60.47Z"/><path class="cls-3" d="M66.5,5h1.39v6.67h3.26V12.8H66.5Z"/><path class="cls-3" d="M72.52,5h4.72V6.13H73.91v2h2.82V9.31H73.91v2.32h3.45V12.8H72.52Z"/><path class="cls-3" d="M79,5h2.64c1.63,0,2.89.58,2.89,2.33s-1.26,2.45-2.89,2.45H80.37V12.8H79Zm2.5,3.66c1.07,0,1.66-.44,1.66-1.33s-.59-1.22-1.66-1.22H80.37V8.62Zm-.12.75,1-.83,2.44,4.26H83.25Z"/></svg>